# xmcd CD database file
#
# Track frame offsets:
#	150
#	21274
#	29407
#	44408
#	62244
#	68315
#	86036
#	103138
#	127961
#	147092
#	155642
#	172566
#	185958
#	201837
#	227259
#	243771
#	261088
#	276805
#	302218
#	332649
#
# Disc length: 4684 seconds
#
# Revision: 0
# Processed by: cddbd v1.5.2PL0 Copyright (c) Steve Scherf et al.
# Submitted via: CDex 1.51
#
DISCID=13124a14
DTITLE=Helenice da Cruz Machado Bella - Na Luz dos Sons 3
DYEAR=1900
DGENRE=New Age
TTITLE0=Na Luz da Oração
TTITLE1=Rondó
TTITLE2=Manhã de Sol
TTITLE3=Saudade
TTITLE4=Brincadeira
TTITLE5=Reverie
TTITLE6=Pensando a Vida
TTITLE7=Seresta ao Luar
TTITLE8=Solilóquio - conversa consigo mesmo
TTITLE9=Alegria!
TTITLE10=Fantasia
TTITLE11=Canção Medieval
TTITLE12=Serenata n. 2
TTITLE13=Gratidão a Deus
TTITLE14=Divagando
TTITLE15=Luz Sideral
TTITLE16=Voz do Coração
TTITLE17=Lied
TTITLE18=Inspiração
TTITLE19=Paz à Terra
EXTD=
EXTT0=
EXTT1=
EXTT2=
EXTT3=
EXTT4=
EXTT5=
EXTT6=
EXTT7=
EXTT8=
EXTT9=
EXTT10=
EXTT11=
EXTT12=
EXTT13=
EXTT14=
EXTT15=
EXTT16=
EXTT17=
EXTT18=
EXTT19=
PLAYORDER=
